<?xml version="1.0" encoding="iso-8859-1"?>
<!-- Generator: Adobe Illustrator 19.0.0, SVG Export Plug-In . SVG Version: 6.00 Build 0)  -->
<svg version="1.1" id="Layer_1" xmlns="http://www.w3.org/2000/svg" xmlns:xlink="http://www.w3.org/1999/xlink" x="0px" y="0px"
	 viewBox="0 0 512 512" style="enable-background:new 0 0 512 512;" xml:space="preserve">
<path style="fill:#415A6B;" d="M388.267,512H123.733c-18.133,0-32-13.867-32-32V32c0-18.133,13.867-32,32-32h264.533
	c18.133,0,32,13.867,32,32v448C420.267,498.133,406.4,512,388.267,512z"/>
<rect x="91.733" y="59.733" style="fill:#F3F3F3;" width="328.533" height="349.867"/>
<g>
	<path style="fill:#F3705A;" d="M141.867,237.867V217.6l71.467-33.067v21.333L166.4,227.2l46.933,22.4v21.333L141.867,237.867z"/>
	<path style="fill:#F3705A;" d="M274.133,167.467H294.4l-61.867,134.4h-20.267L274.133,167.467z"/>
	<path style="fill:#F3705A;" d="M370.133,217.6v20.267l-71.467,33.067V249.6l46.933-22.4l-46.933-21.333v-21.333L370.133,217.6z"/>
</g>
<circle style="fill:#344A5E;" cx="256" cy="460.8" r="30.933"/>
<g>
</g>
<g>
</g>
<g>
</g>
<g>
</g>
<g>
</g>
<g>
</g>
<g>
</g>
<g>
</g>
<g>
</g>
<g>
</g>
<g>
</g>
<g>
</g>
<g>
</g>
<g>
</g>
<g>
</g>
</svg>
